<svg xmlns="http://www.w3.org/2000/svg" viewBox="0 0 1024 1024" width="1024" height="1024">
  <defs>
    <linearGradient id="bg" x1="0" y1="0" x2="0" y2="1">
      <stop offset="0" stop-color="#27303c"></stop><stop offset="1" stop-color="#0c0f15"></stop>
    </linearGradient>
    <radialGradient id="gl" cx="50%" cy="14%" r="70%">
      <stop offset="0" stop-color="rgba(120,150,200,.20)"></stop><stop offset="1" stop-color="rgba(0,0,0,0)"></stop>
    </radialGradient>
    <linearGradient id="hl" x1="0" y1="0" x2="0" y2="1">
      <stop offset="0" stop-color="rgba(255,255,255,.5)"></stop><stop offset=".5" stop-color="rgba(255,255,255,.05)"></stop><stop offset="1" stop-color="rgba(255,255,255,0)"></stop>
    </linearGradient>
    <linearGradient id="g188" x1="0" y1="0" x2="0" y2="1"><stop offset="0" stop-color="#ff8b85"></stop><stop offset="1" stop-color="#FF5A52"></stop></linearGradient><linearGradient id="g368" x1="0" y1="0" x2="0" y2="1"><stop offset="0" stop-color="#ffd27a"></stop><stop offset="1" stop-color="#F2B33D"></stop></linearGradient><linearGradient id="g548" x1="0" y1="0" x2="0" y2="1"><stop offset="0" stop-color="#9be8ad"></stop><stop offset="1" stop-color="#5FD17A"></stop></linearGradient><linearGradient id="g728" x1="0" y1="0" x2="0" y2="1"><stop offset="0" stop-color="#9bc1ff"></stop><stop offset="1" stop-color="#5B9BF5"></stop></linearGradient>
    <clipPath id="clip"><path d="M1024.000,512.000L1023.975,609.210L1023.899,640.263L1023.773,662.835L1023.596,681.211L1023.368,696.981L1023.090,710.940L1022.761,723.547L1022.381,735.098L1021.951,745.795L1021.469,755.783L1020.937,765.169L1020.353,774.036L1019.718,782.450L1019.032,790.462L1018.294,798.117L1017.504,805.449L1016.663,812.489L1015.769,819.260L1014.823,825.785L1013.825,832.083L1012.774,838.170L1011.671,844.059L1010.514,849.764L1009.303,855.295L1008.039,860.663L1006.721,865.876L1005.349,870.942L1003.922,875.868L1002.440,880.661L1000.903,885.326L999.309,889.870L997.660,894.296L995.954,898.610L994.191,902.815L992.370,906.915L990.492,910.914L988.554,914.815L986.558,918.621L984.501,922.335L982.385,925.959L980.207,929.496L977.967,932.947L975.664,936.316L973.298,939.604L970.868,942.812L968.373,945.943L965.812,948.998L963.184,951.978L960.487,954.886L957.722,957.722L954.886,960.487L951.978,963.184L948.998,965.812L945.943,968.373L942.812,970.868L939.604,973.298L936.316,975.664L932.947,977.967L929.496,980.207L925.959,982.385L922.335,984.501L918.621,986.558L914.815,988.554L910.914,990.492L906.915,992.370L902.815,994.191L898.610,995.954L894.296,997.660L889.870,999.309L885.326,1000.903L880.661,1002.440L875.868,1003.922L870.942,1005.349L865.876,1006.721L860.663,1008.039L855.295,1009.303L849.764,1010.514L844.059,1011.671L838.170,1012.774L832.083,1013.825L825.785,1014.823L819.260,1015.769L812.489,1016.663L805.449,1017.504L798.117,1018.294L790.462,1019.032L782.450,1019.718L774.036,1020.353L765.169,1020.937L755.783,1021.469L745.795,1021.951L735.098,1022.381L723.547,1022.761L710.940,1023.090L696.981,1023.368L681.211,1023.596L662.835,1023.773L640.263,1023.899L609.210,1023.975L512.000,1024.000L414.790,1023.975L383.737,1023.899L361.165,1023.773L342.789,1023.596L327.019,1023.368L313.060,1023.090L300.453,1022.761L288.902,1022.381L278.205,1021.951L268.217,1021.469L258.831,1020.937L249.964,1020.353L241.550,1019.718L233.538,1019.032L225.883,1018.294L218.551,1017.504L211.511,1016.663L204.740,1015.769L198.215,1014.823L191.917,1013.825L185.830,1012.774L179.941,1011.671L174.236,1010.514L168.705,1009.303L163.337,1008.039L158.124,1006.721L153.058,1005.349L148.132,1003.922L143.339,1002.440L138.674,1000.903L134.130,999.309L129.704,997.660L125.390,995.954L121.185,994.191L117.085,992.370L113.086,990.492L109.185,988.554L105.379,986.558L101.665,984.501L98.041,982.385L94.504,980.207L91.053,977.967L87.684,975.664L84.396,973.298L81.188,970.868L78.057,968.373L75.002,965.812L72.022,963.184L69.114,960.487L66.278,957.722L63.513,954.886L60.816,951.978L58.188,948.998L55.627,945.943L53.132,942.812L50.702,939.604L48.336,936.316L46.033,932.947L43.793,929.496L41.615,925.959L39.499,922.335L37.442,918.621L35.446,914.815L33.508,910.914L31.630,906.915L29.809,902.815L28.046,898.610L26.340,894.296L24.691,889.870L23.097,885.326L21.560,880.661L20.078,875.868L18.651,870.942L17.279,865.876L15.961,860.663L14.697,855.295L13.486,849.764L12.329,844.059L11.226,838.170L10.175,832.083L9.177,825.785L8.231,819.260L7.337,812.489L6.496,805.449L5.706,798.117L4.968,790.462L4.282,782.450L3.647,774.036L3.063,765.169L2.531,755.783L2.049,745.795L1.619,735.098L1.239,723.547L0.910,710.940L0.632,696.981L0.404,681.211L0.227,662.835L0.101,640.263L0.025,609.210L0.000,512.000L0.025,414.790L0.101,383.737L0.227,361.165L0.404,342.789L0.632,327.019L0.910,313.060L1.239,300.453L1.619,288.902L2.049,278.205L2.531,268.217L3.063,258.831L3.647,249.964L4.282,241.550L4.968,233.538L5.706,225.883L6.496,218.551L7.337,211.511L8.231,204.740L9.177,198.215L10.175,191.917L11.226,185.830L12.329,179.941L13.486,174.236L14.697,168.705L15.961,163.337L17.279,158.124L18.651,153.058L20.078,148.132L21.560,143.339L23.097,138.674L24.691,134.130L26.340,129.704L28.046,125.390L29.809,121.185L31.630,117.085L33.508,113.086L35.446,109.185L37.442,105.379L39.499,101.665L41.615,98.041L43.793,94.504L46.033,91.053L48.336,87.684L50.702,84.396L53.132,81.188L55.627,78.057L58.188,75.002L60.816,72.022L63.513,69.114L66.278,66.278L69.114,63.513L72.022,60.816L75.002,58.188L78.057,55.627L81.188,53.132L84.396,50.702L87.684,48.336L91.053,46.033L94.504,43.793L98.041,41.615L101.665,39.499L105.379,37.442L109.185,35.446L113.086,33.508L117.085,31.630L121.185,29.809L125.390,28.046L129.704,26.340L134.130,24.691L138.674,23.097L143.339,21.560L148.132,20.078L153.058,18.651L158.124,17.279L163.337,15.961L168.705,14.697L174.236,13.486L179.941,12.329L185.830,11.226L191.917,10.175L198.215,9.177L204.740,8.231L211.511,7.337L218.551,6.496L225.883,5.706L233.538,4.968L241.550,4.282L249.964,3.647L258.831,3.063L268.217,2.531L278.205,2.049L288.902,1.619L300.453,1.239L313.060,0.910L327.019,0.632L342.789,0.404L361.165,0.227L383.737,0.101L414.790,0.025L512.000,0.000L609.210,0.025L640.263,0.101L662.835,0.227L681.211,0.404L696.981,0.632L710.940,0.910L723.547,1.239L735.098,1.619L745.795,2.049L755.783,2.531L765.169,3.063L774.036,3.647L782.450,4.282L790.462,4.968L798.117,5.706L805.449,6.496L812.489,7.337L819.260,8.231L825.785,9.177L832.083,10.175L838.170,11.226L844.059,12.329L849.764,13.486L855.295,14.697L860.663,15.961L865.876,17.279L870.942,18.651L875.868,20.078L880.661,21.560L885.326,23.097L889.870,24.691L894.296,26.340L898.610,28.046L902.815,29.809L906.915,31.630L910.914,33.508L914.815,35.446L918.621,37.442L922.335,39.499L925.959,41.615L929.496,43.793L932.947,46.033L936.316,48.336L939.604,50.702L942.812,53.132L945.943,55.627L948.998,58.188L951.978,60.816L954.886,63.513L957.722,66.278L960.487,69.114L963.184,72.022L965.812,75.002L968.373,78.057L970.868,81.188L973.298,84.396L975.664,87.684L977.967,91.053L980.207,94.504L982.385,98.041L984.501,101.665L986.558,105.379L988.554,109.185L990.492,113.086L992.370,117.085L994.191,121.185L995.954,125.390L997.660,129.704L999.309,134.130L1000.903,138.674L1002.440,143.339L1003.922,148.132L1005.349,153.058L1006.721,158.124L1008.039,163.337L1009.303,168.705L1010.514,174.236L1011.671,179.941L1012.774,185.830L1013.825,191.917L1014.823,198.215L1015.769,204.740L1016.663,211.511L1017.504,218.551L1018.294,225.883L1019.032,233.538L1019.718,241.550L1020.353,249.964L1020.937,258.831L1021.469,268.217L1021.951,278.205L1022.381,288.902L1022.761,300.453L1023.090,313.060L1023.368,327.019L1023.596,342.789L1023.773,361.165L1023.899,383.737L1023.975,414.790L1024.000,512.000Z"></path></clipPath>
  </defs>
  <g transform="translate(100,100) scale(0.8046875)">
  <path d="M1024.000,512.000L1023.975,609.210L1023.899,640.263L1023.773,662.835L1023.596,681.211L1023.368,696.981L1023.090,710.940L1022.761,723.547L1022.381,735.098L1021.951,745.795L1021.469,755.783L1020.937,765.169L1020.353,774.036L1019.718,782.450L1019.032,790.462L1018.294,798.117L1017.504,805.449L1016.663,812.489L1015.769,819.260L1014.823,825.785L1013.825,832.083L1012.774,838.170L1011.671,844.059L1010.514,849.764L1009.303,855.295L1008.039,860.663L1006.721,865.876L1005.349,870.942L1003.922,875.868L1002.440,880.661L1000.903,885.326L999.309,889.870L997.660,894.296L995.954,898.610L994.191,902.815L992.370,906.915L990.492,910.914L988.554,914.815L986.558,918.621L984.501,922.335L982.385,925.959L980.207,929.496L977.967,932.947L975.664,936.316L973.298,939.604L970.868,942.812L968.373,945.943L965.812,948.998L963.184,951.978L960.487,954.886L957.722,957.722L954.886,960.487L951.978,963.184L948.998,965.812L945.943,968.373L942.812,970.868L939.604,973.298L936.316,975.664L932.947,977.967L929.496,980.207L925.959,982.385L922.335,984.501L918.621,986.558L914.815,988.554L910.914,990.492L906.915,992.370L902.815,994.191L898.610,995.954L894.296,997.660L889.870,999.309L885.326,1000.903L880.661,1002.440L875.868,1003.922L870.942,1005.349L865.876,1006.721L860.663,1008.039L855.295,1009.303L849.764,1010.514L844.059,1011.671L838.170,1012.774L832.083,1013.825L825.785,1014.823L819.260,1015.769L812.489,1016.663L805.449,1017.504L798.117,1018.294L790.462,1019.032L782.450,1019.718L774.036,1020.353L765.169,1020.937L755.783,1021.469L745.795,1021.951L735.098,1022.381L723.547,1022.761L710.940,1023.090L696.981,1023.368L681.211,1023.596L662.835,1023.773L640.263,1023.899L609.210,1023.975L512.000,1024.000L414.790,1023.975L383.737,1023.899L361.165,1023.773L342.789,1023.596L327.019,1023.368L313.060,1023.090L300.453,1022.761L288.902,1022.381L278.205,1021.951L268.217,1021.469L258.831,1020.937L249.964,1020.353L241.550,1019.718L233.538,1019.032L225.883,1018.294L218.551,1017.504L211.511,1016.663L204.740,1015.769L198.215,1014.823L191.917,1013.825L185.830,1012.774L179.941,1011.671L174.236,1010.514L168.705,1009.303L163.337,1008.039L158.124,1006.721L153.058,1005.349L148.132,1003.922L143.339,1002.440L138.674,1000.903L134.130,999.309L129.704,997.660L125.390,995.954L121.185,994.191L117.085,992.370L113.086,990.492L109.185,988.554L105.379,986.558L101.665,984.501L98.041,982.385L94.504,980.207L91.053,977.967L87.684,975.664L84.396,973.298L81.188,970.868L78.057,968.373L75.002,965.812L72.022,963.184L69.114,960.487L66.278,957.722L63.513,954.886L60.816,951.978L58.188,948.998L55.627,945.943L53.132,942.812L50.702,939.604L48.336,936.316L46.033,932.947L43.793,929.496L41.615,925.959L39.499,922.335L37.442,918.621L35.446,914.815L33.508,910.914L31.630,906.915L29.809,902.815L28.046,898.610L26.340,894.296L24.691,889.870L23.097,885.326L21.560,880.661L20.078,875.868L18.651,870.942L17.279,865.876L15.961,860.663L14.697,855.295L13.486,849.764L12.329,844.059L11.226,838.170L10.175,832.083L9.177,825.785L8.231,819.260L7.337,812.489L6.496,805.449L5.706,798.117L4.968,790.462L4.282,782.450L3.647,774.036L3.063,765.169L2.531,755.783L2.049,745.795L1.619,735.098L1.239,723.547L0.910,710.940L0.632,696.981L0.404,681.211L0.227,662.835L0.101,640.263L0.025,609.210L0.000,512.000L0.025,414.790L0.101,383.737L0.227,361.165L0.404,342.789L0.632,327.019L0.910,313.060L1.239,300.453L1.619,288.902L2.049,278.205L2.531,268.217L3.063,258.831L3.647,249.964L4.282,241.550L4.968,233.538L5.706,225.883L6.496,218.551L7.337,211.511L8.231,204.740L9.177,198.215L10.175,191.917L11.226,185.830L12.329,179.941L13.486,174.236L14.697,168.705L15.961,163.337L17.279,158.124L18.651,153.058L20.078,148.132L21.560,143.339L23.097,138.674L24.691,134.130L26.340,129.704L28.046,125.390L29.809,121.185L31.630,117.085L33.508,113.086L35.446,109.185L37.442,105.379L39.499,101.665L41.615,98.041L43.793,94.504L46.033,91.053L48.336,87.684L50.702,84.396L53.132,81.188L55.627,78.057L58.188,75.002L60.816,72.022L63.513,69.114L66.278,66.278L69.114,63.513L72.022,60.816L75.002,58.188L78.057,55.627L81.188,53.132L84.396,50.702L87.684,48.336L91.053,46.033L94.504,43.793L98.041,41.615L101.665,39.499L105.379,37.442L109.185,35.446L113.086,33.508L117.085,31.630L121.185,29.809L125.390,28.046L129.704,26.340L134.130,24.691L138.674,23.097L143.339,21.560L148.132,20.078L153.058,18.651L158.124,17.279L163.337,15.961L168.705,14.697L174.236,13.486L179.941,12.329L185.830,11.226L191.917,10.175L198.215,9.177L204.740,8.231L211.511,7.337L218.551,6.496L225.883,5.706L233.538,4.968L241.550,4.282L249.964,3.647L258.831,3.063L268.217,2.531L278.205,2.049L288.902,1.619L300.453,1.239L313.060,0.910L327.019,0.632L342.789,0.404L361.165,0.227L383.737,0.101L414.790,0.025L512.000,0.000L609.210,0.025L640.263,0.101L662.835,0.227L681.211,0.404L696.981,0.632L710.940,0.910L723.547,1.239L735.098,1.619L745.795,2.049L755.783,2.531L765.169,3.063L774.036,3.647L782.450,4.282L790.462,4.968L798.117,5.706L805.449,6.496L812.489,7.337L819.260,8.231L825.785,9.177L832.083,10.175L838.170,11.226L844.059,12.329L849.764,13.486L855.295,14.697L860.663,15.961L865.876,17.279L870.942,18.651L875.868,20.078L880.661,21.560L885.326,23.097L889.870,24.691L894.296,26.340L898.610,28.046L902.815,29.809L906.915,31.630L910.914,33.508L914.815,35.446L918.621,37.442L922.335,39.499L925.959,41.615L929.496,43.793L932.947,46.033L936.316,48.336L939.604,50.702L942.812,53.132L945.943,55.627L948.998,58.188L951.978,60.816L954.886,63.513L957.722,66.278L960.487,69.114L963.184,72.022L965.812,75.002L968.373,78.057L970.868,81.188L973.298,84.396L975.664,87.684L977.967,91.053L980.207,94.504L982.385,98.041L984.501,101.665L986.558,105.379L988.554,109.185L990.492,113.086L992.370,117.085L994.191,121.185L995.954,125.390L997.660,129.704L999.309,134.130L1000.903,138.674L1002.440,143.339L1003.922,148.132L1005.349,153.058L1006.721,158.124L1008.039,163.337L1009.303,168.705L1010.514,174.236L1011.671,179.941L1012.774,185.830L1013.825,191.917L1014.823,198.215L1015.769,204.740L1016.663,211.511L1017.504,218.551L1018.294,225.883L1019.032,233.538L1019.718,241.550L1020.353,249.964L1020.937,258.831L1021.469,268.217L1021.951,278.205L1022.381,288.902L1022.761,300.453L1023.090,313.060L1023.368,327.019L1023.596,342.789L1023.773,361.165L1023.899,383.737L1023.975,414.790L1024.000,512.000Z" fill="url(#bg)"></path>
  <g clip-path="url(#clip)"><rect width="1024" height="1024" fill="url(#gl)"></rect></g>
  <g>
    <rect x="188" y="322" width="108" height="470" rx="54" fill="url(#g188)"></rect><rect x="202" y="340" width="80" height="70" rx="40" fill="rgba(255,255,255,.28)"></rect><rect x="368" y="232" width="108" height="560" rx="54" fill="url(#g368)"></rect><rect x="382" y="250" width="80" height="70" rx="40" fill="rgba(255,255,255,.28)"></rect><rect x="548" y="432" width="108" height="360" rx="54" fill="url(#g548)"></rect><rect x="562" y="450" width="80" height="70" rx="40" fill="rgba(255,255,255,.28)"></rect><rect x="728" y="542" width="108" height="250" rx="54" fill="url(#g728)"></rect><rect x="742" y="560" width="80" height="70" rx="40" fill="rgba(255,255,255,.28)"></rect>
    <rect x="150" y="788" width="724" height="6" rx="3" fill="rgba(255,255,255,.10)"></rect>
  </g>
  <path d="M1024.000,512.000L1023.975,609.210L1023.899,640.263L1023.773,662.835L1023.596,681.211L1023.368,696.981L1023.090,710.940L1022.761,723.547L1022.381,735.098L1021.951,745.795L1021.469,755.783L1020.937,765.169L1020.353,774.036L1019.718,782.450L1019.032,790.462L1018.294,798.117L1017.504,805.449L1016.663,812.489L1015.769,819.260L1014.823,825.785L1013.825,832.083L1012.774,838.170L1011.671,844.059L1010.514,849.764L1009.303,855.295L1008.039,860.663L1006.721,865.876L1005.349,870.942L1003.922,875.868L1002.440,880.661L1000.903,885.326L999.309,889.870L997.660,894.296L995.954,898.610L994.191,902.815L992.370,906.915L990.492,910.914L988.554,914.815L986.558,918.621L984.501,922.335L982.385,925.959L980.207,929.496L977.967,932.947L975.664,936.316L973.298,939.604L970.868,942.812L968.373,945.943L965.812,948.998L963.184,951.978L960.487,954.886L957.722,957.722L954.886,960.487L951.978,963.184L948.998,965.812L945.943,968.373L942.812,970.868L939.604,973.298L936.316,975.664L932.947,977.967L929.496,980.207L925.959,982.385L922.335,984.501L918.621,986.558L914.815,988.554L910.914,990.492L906.915,992.370L902.815,994.191L898.610,995.954L894.296,997.660L889.870,999.309L885.326,1000.903L880.661,1002.440L875.868,1003.922L870.942,1005.349L865.876,1006.721L860.663,1008.039L855.295,1009.303L849.764,1010.514L844.059,1011.671L838.170,1012.774L832.083,1013.825L825.785,1014.823L819.260,1015.769L812.489,1016.663L805.449,1017.504L798.117,1018.294L790.462,1019.032L782.450,1019.718L774.036,1020.353L765.169,1020.937L755.783,1021.469L745.795,1021.951L735.098,1022.381L723.547,1022.761L710.940,1023.090L696.981,1023.368L681.211,1023.596L662.835,1023.773L640.263,1023.899L609.210,1023.975L512.000,1024.000L414.790,1023.975L383.737,1023.899L361.165,1023.773L342.789,1023.596L327.019,1023.368L313.060,1023.090L300.453,1022.761L288.902,1022.381L278.205,1021.951L268.217,1021.469L258.831,1020.937L249.964,1020.353L241.550,1019.718L233.538,1019.032L225.883,1018.294L218.551,1017.504L211.511,1016.663L204.740,1015.769L198.215,1014.823L191.917,1013.825L185.830,1012.774L179.941,1011.671L174.236,1010.514L168.705,1009.303L163.337,1008.039L158.124,1006.721L153.058,1005.349L148.132,1003.922L143.339,1002.440L138.674,1000.903L134.130,999.309L129.704,997.660L125.390,995.954L121.185,994.191L117.085,992.370L113.086,990.492L109.185,988.554L105.379,986.558L101.665,984.501L98.041,982.385L94.504,980.207L91.053,977.967L87.684,975.664L84.396,973.298L81.188,970.868L78.057,968.373L75.002,965.812L72.022,963.184L69.114,960.487L66.278,957.722L63.513,954.886L60.816,951.978L58.188,948.998L55.627,945.943L53.132,942.812L50.702,939.604L48.336,936.316L46.033,932.947L43.793,929.496L41.615,925.959L39.499,922.335L37.442,918.621L35.446,914.815L33.508,910.914L31.630,906.915L29.809,902.815L28.046,898.610L26.340,894.296L24.691,889.870L23.097,885.326L21.560,880.661L20.078,875.868L18.651,870.942L17.279,865.876L15.961,860.663L14.697,855.295L13.486,849.764L12.329,844.059L11.226,838.170L10.175,832.083L9.177,825.785L8.231,819.260L7.337,812.489L6.496,805.449L5.706,798.117L4.968,790.462L4.282,782.450L3.647,774.036L3.063,765.169L2.531,755.783L2.049,745.795L1.619,735.098L1.239,723.547L0.910,710.940L0.632,696.981L0.404,681.211L0.227,662.835L0.101,640.263L0.025,609.210L0.000,512.000L0.025,414.790L0.101,383.737L0.227,361.165L0.404,342.789L0.632,327.019L0.910,313.060L1.239,300.453L1.619,288.902L2.049,278.205L2.531,268.217L3.063,258.831L3.647,249.964L4.282,241.550L4.968,233.538L5.706,225.883L6.496,218.551L7.337,211.511L8.231,204.740L9.177,198.215L10.175,191.917L11.226,185.830L12.329,179.941L13.486,174.236L14.697,168.705L15.961,163.337L17.279,158.124L18.651,153.058L20.078,148.132L21.560,143.339L23.097,138.674L24.691,134.130L26.340,129.704L28.046,125.390L29.809,121.185L31.630,117.085L33.508,113.086L35.446,109.185L37.442,105.379L39.499,101.665L41.615,98.041L43.793,94.504L46.033,91.053L48.336,87.684L50.702,84.396L53.132,81.188L55.627,78.057L58.188,75.002L60.816,72.022L63.513,69.114L66.278,66.278L69.114,63.513L72.022,60.816L75.002,58.188L78.057,55.627L81.188,53.132L84.396,50.702L87.684,48.336L91.053,46.033L94.504,43.793L98.041,41.615L101.665,39.499L105.379,37.442L109.185,35.446L113.086,33.508L117.085,31.630L121.185,29.809L125.390,28.046L129.704,26.340L134.130,24.691L138.674,23.097L143.339,21.560L148.132,20.078L153.058,18.651L158.124,17.279L163.337,15.961L168.705,14.697L174.236,13.486L179.941,12.329L185.830,11.226L191.917,10.175L198.215,9.177L204.740,8.231L211.511,7.337L218.551,6.496L225.883,5.706L233.538,4.968L241.550,4.282L249.964,3.647L258.831,3.063L268.217,2.531L278.205,2.049L288.902,1.619L300.453,1.239L313.060,0.910L327.019,0.632L342.789,0.404L361.165,0.227L383.737,0.101L414.790,0.025L512.000,0.000L609.210,0.025L640.263,0.101L662.835,0.227L681.211,0.404L696.981,0.632L710.940,0.910L723.547,1.239L735.098,1.619L745.795,2.049L755.783,2.531L765.169,3.063L774.036,3.647L782.450,4.282L790.462,4.968L798.117,5.706L805.449,6.496L812.489,7.337L819.260,8.231L825.785,9.177L832.083,10.175L838.170,11.226L844.059,12.329L849.764,13.486L855.295,14.697L860.663,15.961L865.876,17.279L870.942,18.651L875.868,20.078L880.661,21.560L885.326,23.097L889.870,24.691L894.296,26.340L898.610,28.046L902.815,29.809L906.915,31.630L910.914,33.508L914.815,35.446L918.621,37.442L922.335,39.499L925.959,41.615L929.496,43.793L932.947,46.033L936.316,48.336L939.604,50.702L942.812,53.132L945.943,55.627L948.998,58.188L951.978,60.816L954.886,63.513L957.722,66.278L960.487,69.114L963.184,72.022L965.812,75.002L968.373,78.057L970.868,81.188L973.298,84.396L975.664,87.684L977.967,91.053L980.207,94.504L982.385,98.041L984.501,101.665L986.558,105.379L988.554,109.185L990.492,113.086L992.370,117.085L994.191,121.185L995.954,125.390L997.660,129.704L999.309,134.130L1000.903,138.674L1002.440,143.339L1003.922,148.132L1005.349,153.058L1006.721,158.124L1008.039,163.337L1009.303,168.705L1010.514,174.236L1011.671,179.941L1012.774,185.830L1013.825,191.917L1014.823,198.215L1015.769,204.740L1016.663,211.511L1017.504,218.551L1018.294,225.883L1019.032,233.538L1019.718,241.550L1020.353,249.964L1020.937,258.831L1021.469,268.217L1021.951,278.205L1022.381,288.902L1022.761,300.453L1023.090,313.060L1023.368,327.019L1023.596,342.789L1023.773,361.165L1023.899,383.737L1023.975,414.790L1024.000,512.000Z" fill="none" stroke="url(#hl)" stroke-width="3" opacity=".9"></path>
  </g>
</svg>
